<svg id="apple_outlined" data-name="Livello 1" xmlns="http://www.w3.org/2000/svg"
    viewBox="0 0 71.47 82.49">
    <path
        d="M56.66,76.17c-4.38,4.18-9.21,3.53-13.81,1.56a17.73,17.73,0,0,0-14.53,0c-6.43,2.73-9.85,1.94-13.72-1.56C-7.28,54-4,20.25,20.81,19c6,.32,10.26,3.28,13.81,3.53,5.28-1.06,10.33-4.08,16-3.68q10.18.81,15.26,7.91C51.89,35,55.2,53.12,68,58.2c-2.57,6.63-5.86,13.18-11.38,18ZM34.13,18.75C33.48,8.9,41.59.79,50.93,0,52.21,11.36,40.43,19.86,34.13,18.75Z"
        transform="translate(1.5 1.62)" fill="#d4d4d6" stroke="#1d1d1b" stroke-miterlimit="10"
        stroke-width="3" />
</svg>