<svg id="email_outlined" width="24" height="24" xmlns="http://www.w3.org/2000/svg"
    data-name="Livello 1">
    <path
        d="m21.60117,7.03528l0,0a1.02268,1.07039 0 0 0 -1.55808,-0.80594l-7.51971,4.36342a1.13698,1.19002 0 0 1 -1.07682,0l-7.48963,-4.36342a1.02268,1.07039 0 0 0 -1.55207,0.80594l0,0a0.88432,0.92557 0 0 0 0.48126,0.80594l8.56646,4.94898a1.12495,1.17743 0 0 0 1.07081,0l8.56044,-4.94898a0.89033,0.93187 0 0 0 0.51736,-0.80594zm0,-3.96045a2.34013,2.44931 0 0 1 1.64832,0.68001a1.9852,2.07782 0 0 1 0.70385,1.56781l0,13.3547a1.9852,2.07782 0 0 1 -0.70385,1.56781a2.34013,2.44931 0 0 1 -1.64832,0.68001l-19.19632,0a2.34013,2.44931 0 0 1 -1.65434,-0.68001a1.9852,2.07782 0 0 1 -0.70385,-1.56781l0,-13.3547a1.9852,2.07782 0 0 1 0.70385,-1.56781a2.34013,2.44931 0 0 1 1.65434,-0.68001l19.19632,0z"
        fill="teal" stroke="#1d1d1b" stroke-width="1.5" />
</svg>