<svg id="email_outlined" data-name="Livello 1" xmlns="http://www.w3.org/2000/svg"
    viewBox="0 0 41.69 30.35">
    <path
        d="M50,26.13h0a1.7,1.7,0,0,0-2.59-1.28L34.91,31.78a1.89,1.89,0,0,1-1.79,0L20.67,24.85a1.7,1.7,0,0,0-2.58,1.28h0a1.47,1.47,0,0,0,.8,1.28l14.24,7.86a1.87,1.87,0,0,0,1.78,0l14.23-7.86A1.48,1.48,0,0,0,50,26.13Zm0-6.29a3.89,3.89,0,0,1,2.74,1.08,3.3,3.3,0,0,1,1.17,2.49V44.62a3.3,3.3,0,0,1-1.17,2.49A3.89,3.89,0,0,1,50,48.19H18.09a3.89,3.89,0,0,1-2.75-1.08,3.3,3.3,0,0,1-1.17-2.49V23.41a3.3,3.3,0,0,1,1.17-2.49,3.89,3.89,0,0,1,2.75-1.08Z"
        transform="translate(-13.17 -18.84)" fill="teal" stroke="#1d1d1b" stroke-miterlimit="10"
        stroke-width="2" />
</svg>