<svg id="github_outlined" data-name="Livello 1" xmlns="http://www.w3.org/2000/svg"
    viewBox="0 0 71.03 71.03">
    <path
        d="M34,0C15.23,0,0,15.61,0,34.88A34.82,34.82,0,0,0,23.26,68c1.7.32,2.33-.76,2.33-1.68s0-3-.05-5.93c-9.46,2.11-11.46-4.68-11.46-4.68-1.55-4-3.78-5.1-3.78-5.1-3.08-2.16.24-2.12.24-2.12,3.41.25,5.21,3.6,5.21,3.6,3,5.33,8,3.79,9.9,2.89a7.54,7.54,0,0,1,2.16-4.66c-7.56-.88-15.5-3.87-15.5-17.24a13.72,13.72,0,0,1,3.5-9.36,12.85,12.85,0,0,1,.34-9.23S19,13.53,25.5,18a31.57,31.57,0,0,1,17,0c6.5-4.51,9.35-3.58,9.35-3.58a12.85,12.85,0,0,1,.34,9.23,13.67,13.67,0,0,1,3.49,9.36c0,13.4-8,16.35-15.53,17.21,1.22,1.08,2.31,3.21,2.31,6.46,0,4.67,0,8.43,0,9.57,0,.93.61,2,2.34,1.68A34.83,34.83,0,0,0,68,34.88C68,15.61,52.8,0,34,0Z"
        transform="translate(1.5 1.5)" fill="#000" stroke="#fff" stroke-miterlimit="10"
        stroke-width="3" fill-rule="evenodd" />
</svg>