<svg id="huawei_outlined" data-name="Livello 1" xmlns="http://www.w3.org/2000/svg"
    viewBox="0 0 69.28 69.2">
    <g id="layer1">
        <g id="g11533">
            <path id="path4250"
                d="M20.89,56.76v6.36c0,1.8-.91,2.77-2.57,2.77s-2.58-1-2.58-2.85V56.76H13.45v6.36c0,3.12,1.76,4.91,4.84,4.91s4.89-1.82,4.89-5V56.76Zm8.43,0-5,11.1h2.34l1-2.15.07-.16h5.17l1,2.31h2.4l-4.93-11,0-.06Zm13.62,0L40.37,64.4l-2.49-7.64H35.44l3.93,11.11h1.9l2.57-7.3,2.57,7.3h1.91l3.93-11.11H49.87l-2.5,7.64-2.56-7.64Zm22.42,0V67.85h2.26V56.76Zm-64.85,0v11.1H2.8V63.35H8v4.51h2.29V56.76H8v4.48H2.8V56.76Zm53.58,0V67.86h8.53v-2H56.36V63.08h4.16v-2H56.36V58.79h6v-2Zm-23.8,2.8,1.63,3.72h0l.12.25H28.56l.11-.25h0Z"
                transform="translate(0.62 0.67)" fill="#3c3c3b" stroke="#1d1d1b"
                stroke-miterlimit="10" />
            <path id="path4252"
                d="M29.05,0c-.91.08-3.37.63-3.37.63h0A9.61,9.61,0,0,0,18.84,7a9.17,9.17,0,0,0-.43,2.48v1.09a13.18,13.18,0,0,0,.45,2.95c1.85,8.06,11,21.31,12.9,24.1.14.13.25.08.25.08a.24.24,0,0,0,.19-.25h0C35.22,7.84,29.05,0,29.05,0ZM39,0S32.8,7.85,35.81,37.45h0a.27.27,0,0,0,.16.23.26.26,0,0,0,.31-.12h0c2-2.85,11-16,12.89-24.06,0,0,1-3.89,0-6.52A9.62,9.62,0,0,0,42.29.63S40.69.23,39,0ZM10.42,8.88S5.14,13.81,4.88,19h0v.8c0,.06,0,.12,0,.18a9.84,9.84,0,0,0,3.45,6.7C13.53,31.67,26.09,38,29,39.37a.26.26,0,0,0,.28,0,.2.2,0,0,0,.06-.09V39.1a0,0,0,0,0,0,0h0A152.94,152.94,0,0,0,10.42,8.88Zm47.19,0A152.59,152.59,0,0,0,38.72,39h0a.28.28,0,0,0,.06.32.27.27,0,0,0,.11,0H39l.06,0h0c3-1.47,15.47-7.7,20.63-12.65A9.88,9.88,0,0,0,63.13,20c.38-5.76-5.52-11.09-5.52-11.09Zm9.82,17s-17.78,9.38-27,15.48h0a.27.27,0,0,0-.1.3s.08.15.21.15h0c3.29,0,15.75,0,16.06,0a12.91,12.91,0,0,0,3.6-.82A12.18,12.18,0,0,0,67,34.68a12,12,0,0,0,1.07-5v-.13a11.84,11.84,0,0,0-.6-3.65ZM.6,26a12,12,0,0,0,.56,8.9A12.34,12.34,0,0,0,7.76,41a13,13,0,0,0,4,.87c.31,0,12.44,0,15.69,0a.28.28,0,0,0,.21-.14.08.08,0,0,0,0,0v-.13a.39.39,0,0,0-.1-.14h0C18.4,35.33.6,26,.6,26ZM27.08,43.38,6.17,44.1c2.26,4,6.08,7.07,10.06,6.12,2.75-.68,9-4.94,11-6.38h0c.16-.14.1-.25.1-.25a.27.27,0,0,0-.26-.19Zm13.85,0h0s-.18,0-.23.16a.28.28,0,0,0,.08.28h0c2,1.41,8.07,5.58,11,6.39a4.61,4.61,0,0,0,1.19.18h.44c2-.07,5.37-1.06,8.47-6.3Z"
                transform="translate(0.62 0.67)" fill="#cf0a2c" stroke="#1d1d1b"
                stroke-miterlimit="10" stroke-width="1.25" />
        </g>
    </g>
</svg>