<svg id="twitter_outlined" data-name="Livello 1" xmlns="http://www.w3.org/2000/svg"
    viewBox="0 0 62.95 47.75">
    <g id="layer1">
        <path id="path5"
            d="M62.27,16.71a24,24,0,0,1-6.66,1.8,11.42,11.42,0,0,0,5.1-6.34A23.48,23.48,0,0,1,53.34,15a11.67,11.67,0,0,0-20.12,7.83,11.42,11.42,0,0,0,.3,2.61,33.17,33.17,0,0,1-23.94-12A11.17,11.17,0,0,0,8,19.19a11.41,11.41,0,0,0,5.17,9.53,11.89,11.89,0,0,1-5.27-1.43v.14a11.51,11.51,0,0,0,9.32,11.23,12.24,12.24,0,0,1-3.06.4A11.42,11.42,0,0,1,12,38.85,11.59,11.59,0,0,0,22.81,46.8,23.46,23.46,0,0,1,8.44,51.7a23,23,0,0,1-2.77-.16,33.18,33.18,0,0,0,17.81,5.15c21.37,0,33.06-17.45,33.06-32.58V22.64a23.64,23.64,0,0,0,5.82-5.93Z"
            transform="translate(-1.32 -9.94)" fill="#2aa9e0" stroke="#000" stroke-miterlimit="10"
            stroke-width="2" />
    </g>
</svg>