<svg id="twitter_outlined_white" data-name="Livello 1" xmlns="http://www.w3.org/2000/svg"
    viewBox="0 0 76.49 44.7">
    <g id="layer1">
        <path id="path5"
            d="M68,17.79a34.83,34.83,0,0,1-8,1.69,11.79,11.79,0,0,0,6.13-5.94,33.67,33.67,0,0,1-8.86,2.61A16.13,16.13,0,0,0,47.1,12.76c-7.71,0-14,4.8-14,10.73a8.75,8.75,0,0,0,.36,2.45c-11.6-.45-21.88-4.73-28.76-11.22a8.84,8.84,0,0,0-1.89,5.4c0,3.72,2.46,7,6.21,8.93a17.23,17.23,0,0,1-6.33-1.34v.13c0,5.2,4.81,9.54,11.2,10.53a18.36,18.36,0,0,1-3.68.38,17.27,17.27,0,0,1-2.62-.2c1.77,4.27,6.93,7.37,13,7.46A33.65,33.65,0,0,1,3.33,50.6q-1.69,0-3.33-.15a48.44,48.44,0,0,0,21.4,4.83c25.67,0,39.71-16.36,39.71-30.55,0-.46,0-.92,0-1.38a26,26,0,0,0,7-5.56Z"
            transform="translate(5.27 -11.57)" fill="#fff" stroke="#000" stroke-miterlimit="10"
            stroke-width="2" />
    </g>
</svg>