<svg id="apple_secondary" data-name="Livello 1" xmlns="http://www.w3.org/2000/svg"
    viewBox="0 0 68.02 79.37">
    <path
        d="M62.14,29.6a20.66,20.66,0,0,1,3.77-2.84q-5.08-7.1-15.27-7.91c-5.67-.4-10.73,2.62-16,3.68-3.55-.25-7.82-3.21-13.82-3.53C12.32,19.43,6.35,23.66,3,29.93,22.48,29.16,42.52,29.06,62.14,29.6Z"
        transform="translate(-0.01)" fill="#61bb46" />
    <path d="M51,0C41.6.79,33.49,8.9,34.14,18.75,40.44,19.86,52.23,11.36,51,0Z"
        transform="translate(-0.01)" fill="#61bb46" />
    <path
        d="M57.34,37.72a16.84,16.84,0,0,1,4.8-8.12c-19.62-.54-39.66-.44-59.1.33A26.79,26.79,0,0,0,.27,39C19,38.92,38.31,37.38,57.34,37.72Z"
        transform="translate(-0.01)" fill="#fdb827" />
    <path
        d="M57.71,47.21a17,17,0,0,1-.37-9.49C38.31,37.38,19,38.92.27,39A36.33,36.33,0,0,0,.4,48.63C19.25,45.75,38.71,47.26,57.71,47.21Z"
        transform="translate(-0.01)" fill="#f5821f" />
    <path
        d="M62.07,70a55.51,55.51,0,0,0,5.56-10.81c-21.3.46-43.23-1-64.44-.26a51.14,51.14,0,0,0,6,10.9C27.05,69.13,44.42,68.58,62.07,70Z"
        transform="translate(-0.01)" fill="#963d97" />
    <path
        d="M62.07,70c-17.65-1.42-35-.87-52.85-.17a55.35,55.35,0,0,0,5.37,6.34c3.88,3.5,7.3,4.29,13.73,1.56a17.8,17.8,0,0,1,14.54,0c4.61,2,9.44,2.62,13.82-1.56l0,0A32.18,32.18,0,0,0,62.07,70Z"
        transform="translate(-0.01)" fill="#009ddc" />
    <path
        d="M67.63,59.19l.4-1a17.7,17.7,0,0,1-10.32-11c-19,0-38.46-1.46-57.31,1.42a45,45,0,0,0,2.79,10.3C24.4,58.2,46.33,59.65,67.63,59.19Z"
        transform="translate(-0.01)" fill="#e03a3e" />
</svg>