<svg id="email_secondary" data-name="Livello 1" xmlns="http://www.w3.org/2000/svg"
    viewBox="0 0 39.69 28.35">
    <path
        d="M52.69,20.92A3.89,3.89,0,0,0,50,19.84H25v7.41l8.12,4.53a1.89,1.89,0,0,0,1.79,0l12.45-6.93A1.7,1.7,0,0,1,50,26.13a1.48,1.48,0,0,1-.81,1.28L34.91,35.27a1.87,1.87,0,0,1-1.78,0L25,30.78V41c9.37-.67,19.19-.88,28.86-.65V23.41A3.3,3.3,0,0,0,52.69,20.92Z"
        transform="translate(-14.17 -19.84)" fill="teal" />
    <path
        d="M25,41v7.19H50a3.89,3.89,0,0,0,2.74-1.08,3.3,3.3,0,0,0,1.17-2.49V40.35C44.19,40.12,34.37,40.33,25,41Z"
        transform="translate(-14.17 -19.84)" fill="#0c4c47" />
    <path
        d="M18.89,27.41a1.47,1.47,0,0,1-.8-1.28,1.7,1.7,0,0,1,2.58-1.28L25,27.25V19.84H18.09a3.89,3.89,0,0,0-2.75,1.08,3.3,3.3,0,0,0-1.17,2.49V44.62a3.3,3.3,0,0,0,1.17,2.49,3.89,3.89,0,0,0,2.75,1.08H25V30.78Z"
        transform="translate(-14.17 -19.84)" fill="#106664" />
</svg>