<svg id="email_secondary" data-name="Livello 1" xmlns="http://www.w3.org/2000/svg"
    viewBox="0 0 68.03 51.02">
    <path
        d="M21,59.53H61.32A6.57,6.57,0,0,0,66,57.59a6.08,6.08,0,0,0,2-4.48V45.73c-15.62.06-31.24,1.16-46.86,1.26C21.12,51.19,21.07,55.38,21,59.53Z"
        transform="translate(0 -8.5)" fill="#0c4c47" />
    <path
        d="M66,10.44A6.57,6.57,0,0,0,61.32,8.5h-41c.4,4.9.64,9.85.78,14.83L32.48,30a3.06,3.06,0,0,0,3.07,0L56.89,17.51a2.9,2.9,0,0,1,4.43,2.31A2.69,2.69,0,0,1,60,22.13L35.54,36.26a3,3,0,0,1-3,0L21.22,29.73c.06,5.76,0,11.52,0,17.26,15.62-.1,31.24-1.2,46.86-1.26V14.92A6.08,6.08,0,0,0,66,10.44Z"
        transform="translate(0 -8.5)" fill="teal" />
    <path
        d="M21.22,29.73,8.09,22.13a2.68,2.68,0,0,1-1.38-2.31,2.9,2.9,0,0,1,4.43-2.31l10,5.82c-.14-5-.38-9.93-.78-14.83H6.71A6.55,6.55,0,0,0,2,10.44a6.1,6.1,0,0,0-2,4.48V53.11a6.1,6.1,0,0,0,2,4.48,6.55,6.55,0,0,0,4.71,1.94H21c0-4.15.09-8.34.14-12.54h0C21.23,41.25,21.28,35.49,21.22,29.73Z"
        transform="translate(0 -8.5)" fill="#106664" />
</svg>