<svg id="email_secondary" width="24" height="24" xmlns="http://www.w3.org/2000/svg"
    data-name="Livello 1">

    <path fill="teal"
        d="m23.13726,3.75484a2.33639,2.44931 0 0 0 -1.61565,-0.68001l-15.01535,0l0,4.66565l4.87699,2.85228a1.13516,1.19002 0 0 0 1.0751,0l7.47765,-4.36342a1.02104,1.07039 0 0 1 1.58562,0.80594a0.88891,0.93187 0 0 1 -0.4865,0.80594l-8.57677,4.94899a1.12315,1.17743 0 0 1 -1.06909,0l-4.88299,-2.82709l0,6.43494c5.62775,-0.42186 11.52579,-0.55409 17.33372,-0.40927l0,-10.66614a1.98203,2.07782 0 0 0 -0.70272,-1.56781z" />
    <path fill="#0c4c47"
        d="m6.50626,16.14477l0,4.7804l15.01535,0a2.33639,2.58633 0 0 0 1.64568,-0.71806a1.98203,2.19406 0 0 0 0.70272,-1.65552l0,-2.83898c-5.83797,-0.15292 -11.736,-0.0133 -17.36375,0.43216z" />
    <path fill="#106664"
        d="m2.96489,7.84121a0.8829,0.92557 0 0 1 -0.48049,-0.80594a1.02104,1.07039 0 0 1 1.54958,-0.80594l2.60066,1.51114l0,-4.66565l-4.15024,0a2.33639,2.44931 0 0 0 -1.65169,0.68001a1.98203,2.07782 0 0 0 -0.70272,1.56781l0,13.35471a1.98203,2.07782 0 0 0 0.70272,1.56781a2.33639,2.44931 0 0 0 1.65169,0.68001l4.15024,0l0,-10.96207l-3.66975,-2.12189z" />
</svg>