<svg id="github_secondary" data-name="Livello 1" xmlns="http://www.w3.org/2000/svg"
    viewBox="0 0 68.03 59.01">
    <defs>
        <clipPath id="clip-path" transform="translate(0 0)">
            <path
                d="M26.07,64.23a5.84,5.84,0,0,0,2.5,3.8H39.49c1.33-.89,2.68-2.57,2.68-5.72V54.18a3.24,3.24,0,0,1,2-2.68s1.09-.76-.08-1.18c0,0-5.18-.42-5.18,3.78v6.19s.21,2.28-1,3.23V55.86S38,53.42,39.3,52.5c0,0,.85-1.5-1-1.1A4.55,4.55,0,0,0,34.57,56l-.08,7.88h-.85L33.56,56a4.59,4.59,0,0,0-3.72-4.61c-1.86-.42-1,1.1-1,1.1,1.28.92,1.36,3.36,1.36,3.36V63.6c-1.22-.87-1-3.31-1-3.31V54.1c0-4.2-5.18-3.78-5.18-3.78-1.2.42-.08,1.18-.08,1.18a3.31,3.31,0,0,1,2,2.68v5.69Z"
                fill="none" />
        </clipPath>
    </defs>
    <path
        d="M53.39,52.42c0,3.65-8.56,6.59-19.11,6.59s-19.11-3-19.11-6.59,8.56-6.59,19.11-6.59,19.11,2.94,19.11,6.59Z"
        transform="translate(0 0)" fill="#9edcf2" />
    <g clip-path="url(#clip-path)">
        <path
            d="M53.39,52.42c0,3.65-8.56,6.59-19.11,6.59s-19.11-3-19.11-6.59,8.56-6.59,19.11-6.59,19.11,2.94,19.11,6.59Z"
            transform="translate(0 0)" fill="#7dbce7" />
    </g>
    <path d="M12.46,33l-.55,1.89a.67.67,0,0,0,.5.81.62.62,0,0,0,.59-.84L12.46,33Z"
        transform="translate(0 0)" fill="#9edcf2" />
    <path
        d="M68,25.08l0-.24a65.23,65.23,0,0,0-14.83-1,26.59,26.59,0,0,0,.75-7,12.3,12.3,0,0,0-3.72-9A11.68,11.68,0,0,0,49.69.1s-2.6-.82-8.53,3.09a30.48,30.48,0,0,0-7.25-.86,31.74,31.74,0,0,0-8,1C19.77-.77,17.09.07,17.09.07a11.2,11.2,0,0,0-.35,8.34,12,12,0,0,0-3.32,8.45,20.06,20.06,0,0,0,1,7A65.15,65.15,0,0,0,0,24.81l.05.24a64.73,64.73,0,0,1,14.49-1c.16.42.34.84.53,1.23a65.53,65.53,0,0,0-15,2.13l.08.23a66.3,66.3,0,0,1,15-2.09c2.07,3.77,6.11,6.24,13.34,7a5.83,5.83,0,0,0-2.5,3.81c-1.41.65-5.82,2.28-8.48-2.23a6,6,0,0,0-4.33-2.89s-2.76-.05-.19,1.71c0,0,1.84.86,3.11,4.09,0,0,1.68,5.51,9.68,3.72v5.65a3.22,3.22,0,0,1-2.05,2.67s-1.12.76.08,1.18c0,0,5.18.42,5.18-3.78V40.32s-.21-2.46,1-3.3V47.2s-.08,2.44-1.35,3.36c0,0-.85,1.49,1,1.1A4.57,4.57,0,0,0,33.46,47l.08-10.31h.85L34.47,47a4.6,4.6,0,0,0,3.72,4.62c1.86.42,1-1.1,1-1.1-1.28-.92-1.36-3.36-1.36-3.36V37.09c1.22.95,1,3.23,1,3.23v6.19c0,4.2,5.18,3.78,5.18,3.78,1.2-.42.08-1.18.08-1.18a3.3,3.3,0,0,1-2-2.67V38.3c0-3.17-1.36-4.85-2.69-5.72,7.71-.76,11.4-3.2,13.11-7a65.44,65.44,0,0,1,15.25,2.12l.08-.23a67.64,67.64,0,0,0-15.23-2.13c.16-.39.29-.78.43-1.2a66.75,66.75,0,0,1,15,1Z"
        transform="translate(0 0)" fill="#010101" />
    <path
        d="M46.4,16.71A7.09,7.09,0,0,1,49,21.9c0,9-6.8,9.26-15.2,9.26s-15.2-1.25-15.2-9.26a7,7,0,0,1,2.6-5.17c2.74-2.46,7.36-1.15,12.6-1.15s9.83-1.34,12.57,1.13Z"
        transform="translate(0 0)" fill="#f5ccb3" />
    <path
        d="M28.78,22.37c0,2.5-1.41,4.49-3.16,4.49s-3.16-2-3.16-4.49,1.4-4.48,3.16-4.48,3.16,2,3.16,4.48Z"
        transform="translate(0 0)" fill="#fff" />
    <path d="M27.77,22.43c0,1.65-1,3-2.1,3s-2.1-1.34-2.1-3,1-3,2.1-3,2.1,1.33,2.1,3Z"
        transform="translate(0 0)" fill="#af5c51" />
    <path
        d="M45.76,22.37c0,2.5-1.41,4.49-3.16,4.49s-3.16-2-3.16-4.49,1.41-4.48,3.16-4.48,3.16,2,3.16,4.48Z"
        transform="translate(0 0)" fill="#fff" />
    <path d="M44.73,22.43c0,1.65-1,3-2.1,3s-2.1-1.34-2.1-3,.95-3,2.1-3,2.1,1.33,2.1,3Z"
        transform="translate(0 0)" fill="#af5c51" />
    <path
        d="M34.68,26.36a.8.8,0,0,1-.8.79.79.79,0,0,1-.79-.79.77.77,0,0,1,.79-.78.79.79,0,0,1,.8.78Z"
        transform="translate(0 0)" fill="#af5c51" />
    <path
        d="M32.05,28.33a.25.25,0,0,1,.48-.16,1.42,1.42,0,0,0,1.35.95,1.48,1.48,0,0,0,1.36-.95.24.24,0,0,1,.32-.15.24.24,0,0,1,.16.31,2,2,0,0,1-3.67,0Z"
        transform="translate(0 0)" fill="#af5c51" />
    <path d="M14.48,31.9c0,.21-.24.37-.55.37s-.56-.16-.56-.37.24-.37.56-.37.55.16.55.37Z"
        transform="translate(0 0)" fill="#c4e5d9" />
    <path d="M16,32.74c0,.21-.23.37-.55.37s-.56-.16-.56-.37.24-.37.56-.37.55.16.55.37Z"
        transform="translate(0 0)" fill="#c4e5d9" />
    <path d="M17,33.84c0,.21-.23.37-.55.37s-.56-.16-.56-.37.24-.37.56-.37.55.16.55.37Z"
        transform="translate(0 0)" fill="#c4e5d9" />
    <path d="M17.81,35.1c0,.21-.24.37-.56.37s-.56-.16-.56-.37.24-.37.56-.37.56.16.56.37Z"
        transform="translate(0 0)" fill="#c4e5d9" />
    <path d="M18.74,36.26c0,.21-.24.36-.56.36s-.56-.15-.56-.36.24-.37.56-.37.56.16.56.37Z"
        transform="translate(0 0)" fill="#c4e5d9" />
    <path d="M20,37.28c0,.21-.24.37-.56.37s-.56-.16-.56-.37.24-.37.56-.37.56.16.56.37Z"
        transform="translate(0 0)" fill="#c4e5d9" />
    <path d="M21.79,37.93c0,.21-.24.37-.56.37s-.55-.16-.55-.37.23-.36.55-.36.56.15.56.36Z"
        transform="translate(0 0)" fill="#c4e5d9" />
    <path d="M23.57,37.93c0,.21-.24.37-.56.37s-.55-.16-.55-.37.23-.36.55-.36.56.15.56.36Z"
        transform="translate(0 0)" fill="#c4e5d9" />
    <path d="M25.38,37.65c0,.21-.24.36-.56.36s-.56-.15-.56-.36.24-.37.56-.37.56.16.56.37Z"
        transform="translate(0 0)" fill="#c4e5d9" />
</svg>