<svg id="google_secondary" data-name="Livello 1" xmlns="http://www.w3.org/2000/svg"
    viewBox="0 0 68.03 68.03">
    <path
        d="M68,34c0-1.56-.09-3.08-.19-4.58a4.24,4.24,0,0,0-4.25-3.93H39a4.26,4.26,0,0,0-4.26,4.26V34"
        transform="translate(0 0)" fill="#1d71b8" />
    <path
        d="M34.75,34V40.9a.23.23,0,0,0,.24.23H53.2a.24.24,0,0,1,.23.29,15.76,15.76,0,0,1-6.79,9.79.23.23,0,0,0-.1.19v8.15a.23.23,0,0,0,.24.23H57.63a.23.23,0,0,0,.16-.06C64.29,53.8,68,45.09,68,34.78c0-.26,0-.51,0-.76"
        transform="translate(0 0)" fill="#4285f4" />
    <path d="M34.75,68c9.39,0,17.24-3.06,23-8.25l-11.18-8.5a21.3,21.3,0,0,1-11.79,3.29"
        transform="translate(0 0)" fill="#009640" />
    <path d="M34.75,54.57A20.71,20.71,0,0,1,15.26,40.51H3.74v8.76A34.77,34.77,0,0,0,34.75,68"
        transform="translate(0 0)" fill="#34a853" />
    <path
        d="M15.26,40.51A19.48,19.48,0,0,1,14.16,34a20.34,20.34,0,0,1,1.1-6.5V18.77H3.74a33,33,0,0,0,0,30.5Z"
        transform="translate(0 0)" fill="#fbbc05" />
    <path d="M34.75,0a34.76,34.76,0,0,0-31,18.77l11.52,8.75A20.72,20.72,0,0,1,34.75,13.46"
        transform="translate(0 0)" fill="#ea4335" />
    <path
        d="M34.75,13.46a19.26,19.26,0,0,1,11.54,3.63,2.78,2.78,0,0,0,3.58-.28l5.89-5.76a2.83,2.83,0,0,0-.3-4.28A33.78,33.78,0,0,0,34.75,0"
        transform="translate(0 0)" fill="#be1622" />
</svg>