<svg id="huawei_secondary" data-name="Livello 1" xmlns="http://www.w3.org/2000/svg"
    viewBox="0 -10 68 70">
    <g id="layer1">
        <g id="g11533">
            <path
                d="M29.79,10.11a8.21,8.21,0,0,0-.74-1.3h0c-.91.08-3.37.63-3.37.63h0a9.61,9.61,0,0,0-6.84,6.35,9.17,9.17,0,0,0-.43,2.48v1.09a13.18,13.18,0,0,0,.45,2.95c.08.31.16.64.26,1C19.85,17.26,24.39,12.87,29.79,10.11Z"
                transform="translate(0 -8.81)" fill="#ea5b0c" />
            <path
                d="M29.35,47.88A154.87,154.87,0,0,0,12.63,20.49c-3.24,4.37-4.34,10.1-3.89,15.37C14.13,40.77,26.16,46.79,29,48.18a.24.24,0,0,0,.28,0,.2.2,0,0,0,.06-.09v-.13a0,0,0,0,0,0,0Z"
                transform="translate(0 -8.81)" fill="#cf0a2c" />
            <path
                d="M12.63,20.49l-.89-1.15c-3.31,4.32-5.16,10-4.32,15.28a7.84,7.84,0,0,0,.92.89l.4.35C8.29,30.59,9.39,24.86,12.63,20.49Z"
                transform="translate(0 -8.81)" fill="#e30613" />
            <path
                d="M11.74,19.34c-.84-1.07-1.32-1.65-1.32-1.65h0S5.14,22.62,4.88,27.84h0v.79c0,.06,0,.12,0,.18a9.52,9.52,0,0,0,2.53,5.81C6.58,29.36,8.43,23.66,11.74,19.34Z"
                transform="translate(0 -8.81)" fill="#ea5b0c" />
            <path
                d="M30.35,11.44c-.2-.53-.39-1-.56-1.33-5.4,2.76-9.94,7.15-10.67,13.17.1.38.24.78.37,1.18C21.08,18.37,25.31,14.85,30.35,11.44Z"
                transform="translate(0 -8.81)" fill="#e30613" />
            <path
                d="M30.35,11.44c-5,3.41-9.27,6.93-10.86,13C22.21,32.54,30,43.86,31.76,46.41c.14.13.25.08.25.08a.24.24,0,0,0,.19-.25h0C34.29,25.74,32,15.68,30.35,11.44Z"
                transform="translate(0 -8.81)" fill="#cf0a2c" />
            <path
                d="M2.82,36C1.43,35.22.6,34.79.6,34.79h0a12,12,0,0,0,.56,8.9,12.34,12.34,0,0,0,6.6,6.14,13,13,0,0,0,4,.87c.06,0,.58,0,1.38,0C7,48.09,1.79,43,2.82,36Z"
                transform="translate(0 -8.81)" fill="#ea5b0c" />
            <path
                d="M27.58,50.23h0C20.9,45.8,9.66,39.64,4,36.61,4.32,44,9.79,47.83,15.44,50.71l12,0a.28.28,0,0,0,.21-.14.08.08,0,0,0,0,0v-.12A.38.38,0,0,0,27.58,50.23Z"
                transform="translate(0 -8.81)" fill="#cf0a2c" />
            <path d="M4,36.61,2.82,36C1.79,43,7,48.09,13.14,50.71h2.3C9.79,47.83,4.32,44,4,36.61Z"
                transform="translate(0 -8.81)" fill="#e30613" />
            <path
                d="M6.17,52.91c2.26,4,6.08,7.07,10.06,6.12a8,8,0,0,0,1.12-.39C14.17,57.93,11.55,55,9,52.82Z"
                transform="translate(0 -8.81)" fill="#ea5b0c" />
            <path
                d="M9,52.82c2.54,2.16,5.16,5.11,8.34,5.82a27.57,27.57,0,0,0,3.08-1.58c-3.06-.5-5.79-2.35-8.47-4.35Z"
                transform="translate(0 -8.81)" fill="#e30613" />
            <path
                d="M27.24,52.64c.16-.14.1-.25.1-.25a.27.27,0,0,0-.26-.19h0L12,52.71c2.68,2,5.41,3.85,8.47,4.35,2.66-1.53,5.54-3.52,6.82-4.41Z"
                transform="translate(0 -8.81)" fill="#cf0a2c" />
            <path
                d="M49.2,15.79a9.62,9.62,0,0,0-6.91-6.35s-1.6-.39-3.3-.63h0a7.32,7.32,0,0,0-.59,1c5.45,3.22,8.9,6,10.9,11.86A12.11,12.11,0,0,0,49.2,15.79Z"
                transform="translate(0 -8.81)" fill="#ea5b0c" />
            <path
                d="M37.69,11.43c-1.63,4.23-4,14.29-1.88,34.83h0a.27.27,0,0,0,.16.23.26.26,0,0,0,.31-.12h0c1.88-2.67,9.95-14.44,12.46-22.52C47.3,18.63,42.21,14.26,37.69,11.43Z"
                transform="translate(0 -8.81)" fill="#cf0a2c" />
            <path
                d="M49.3,21.67c-2-5.81-5.45-8.64-10.9-11.86-.2.4-.45.94-.71,1.62,4.52,2.83,9.61,7.2,11.05,12.42.17-.53.31-1,.43-1.54C49.17,22.31,49.23,22.07,49.3,21.67Z"
                transform="translate(0 -8.81)" fill="#e30613" />
            <path
                d="M63.52,36.83C57.77,40,47,45.9,40.46,50.22h0a.27.27,0,0,0-.1.3s.08.16.21.16h0c3.29,0,15.75,0,16.06,0l.29,0C59.61,46.06,66.6,42.39,63.52,36.83Z"
                transform="translate(0 -8.81)" fill="#cf0a2c" />
            <path
                d="M65,36l-1.5.8c3.08,5.56-3.91,9.23-6.6,13.79a13.66,13.66,0,0,0,2-.36C63,46.56,68.42,42,65,36Z"
                transform="translate(0 -8.81)" fill="#e30613" />
            <path
                d="M67.43,34.74h0L65,36c3.4,6-2,10.53-6.14,14.23a12.34,12.34,0,0,0,1.35-.44A12.18,12.18,0,0,0,67,43.49a12,12,0,0,0,1.07-5v-.13A11.84,11.84,0,0,0,67.43,34.74Z"
                transform="translate(0 -8.81)" fill="#ea5b0c" />
            <path d="M56.06,52.73H56V53Z" transform="translate(0 -8.81)" fill="#cf0a2c" />
            <path
                d="M55.77,52.72l-14.84-.51h0s-.18,0-.23.15a.28.28,0,0,0,.08.28h0a87.92,87.92,0,0,0,7.66,4.9C51.17,56.71,54.6,55.59,55.77,52.72Z"
                transform="translate(0 -8.81)" fill="#cf0a2c" />
            <path
                d="M56.06,52.73,56,53v-.28h-.23c-1.17,2.87-4.6,4-7.34,4.83a22,22,0,0,0,2.75,1.31c3.14-1.14,5.91-3,7.45-6Z"
                transform="translate(0 -8.81)" fill="#e30613" />
            <path
                d="M58.63,52.81c-1.54,3.09-4.31,4.91-7.45,6l.58.19a5,5,0,0,0,1.19.17h.44c2-.07,5.37-1.06,8.47-6.3Z"
                transform="translate(0 -8.81)" fill="#ea5b0c" />
            <path
                d="M58.34,36.69c1.41-6,.5-11.18-3.37-15.64A154.42,154.42,0,0,0,38.72,47.81h0a.28.28,0,0,0,.06.32.27.27,0,0,0,.11,0H39a.09.09,0,0,0,.06,0h0C41.83,46.81,52.62,41.4,58.34,36.69Z"
                transform="translate(0 -8.81)" fill="#cf0a2c" />
            <path
                d="M58.34,36.69c.49-.4.95-.8,1.35-1.18l.21-.18c2.35-5.34,0-11.73-4-15.52-.29.36-.61.79-1,1.24C58.84,25.51,59.75,30.72,58.34,36.69Z"
                transform="translate(0 -8.81)" fill="#e30613" />
            <path
                d="M59.9,35.33a9.76,9.76,0,0,0,3.23-6.55c.38-5.76-5.52-11.09-5.52-11.09h0s-.63.75-1.68,2.12C59.93,23.6,62.25,30,59.9,35.33Z"
                transform="translate(0 -8.81)" fill="#ea5b0c" />
        </g>
    </g>
</svg>