<svg data-name="Livello 1" id="microsoft_secondary" viewBox="0 0 68.03 66.85"
    xmlns="http://www.w3.org/2000/svg">
    <g id="Windows">
        <g id="Windows-2">
            <g id="Yellow_Square">
                <path
                    d="M32.1,61.24l32.53,6.15A2.87,2.87,0,0,0,68,64.57V39a2.87,2.87,0,0,0-2.87-2.87H32.63A2.88,2.88,0,0,0,29.76,39V58.43A2.85,2.85,0,0,0,32.1,61.24Z"
                    fill="#ffc107" transform="translate(0 -0.59)" />
            </g>
            <g id="Green_Square">
                <path
                    d="M32.1,6.79,64.63.64A2.87,2.87,0,0,1,68,3.46V29a2.86,2.86,0,0,1-2.87,2.87H32.63A2.87,2.87,0,0,1,29.76,29V9.6A2.86,2.86,0,0,1,32.1,6.79Z"
                    fill="#4caf50" transform="translate(0 -0.59)" />
            </g>
            <g id="Blue_Square">
                <path
                    d="M2.33,55.72,22.1,59.51a2.86,2.86,0,0,0,3.41-2.81V39a2.87,2.87,0,0,0-2.87-2.87H2.87A2.87,2.87,0,0,0,0,39v13.9A2.87,2.87,0,0,0,2.33,55.72Z"
                    fill="#2196f3" transform="translate(0 -0.59)" />
            </g>
            <g id="Orange_Square">
                <path
                    d="M2.35,12.33,22.13,8.7a2.87,2.87,0,0,1,3.38,2.82V29a2.86,2.86,0,0,1-2.87,2.87H2.87A2.86,2.86,0,0,1,0,29V15.15A2.86,2.86,0,0,1,2.35,12.33Z"
                    fill="#f44336" transform="translate(0 -0.59)" />
            </g>
        </g>
    </g>
</svg>