<svg id="twitter_secondary" data-name="Livello 1" xmlns="http://www.w3.org/2000/svg"
    viewBox="0 0 56.69 57.04">
    <g id="Icons">
        <path
            d="M33.73,17.38c-3.35-8.33,11.74-16.25,18-8.64,0,0,2.41-.08,6.81-2.2a10.46,10.46,0,0,1-4.43,5,17.34,17.34,0,0,0,5.68-1.26,19.15,19.15,0,0,1-5,4.76A36.28,36.28,0,0,1,54,22,28.09,28.09,0,0,1,43.77,37.3a33.42,33.42,0,0,1-20.66,6.07A38.56,38.56,0,0,1,8.29,39.24s8.9.85,15.46-4A10.83,10.83,0,0,1,14,28.65a13.05,13.05,0,0,0,4.71-.24S10.32,27.05,10.22,19A12.82,12.82,0,0,0,15,20.07S7,14.61,11.88,7.54A31.31,31.31,0,0,0,33.73,17.38Z"
            transform="translate(-5.67 -5.32)" fill="#4aa0ec" />
        <path
            d="M33.73,17.38c-3.35-8.33,11.74-16.25,18-8.64,0,0,2.41-.08,6.81-2.2a10.46,10.46,0,0,1-4.43,5,17.34,17.34,0,0,0,5.68-1.26,19.15,19.15,0,0,1-5,4.76A36.28,36.28,0,0,1,54,22,28.09,28.09,0,0,1,43.77,37.3a33.42,33.42,0,0,1-20.66,6.07A38.56,38.56,0,0,1,8.29,39.24s8.9.85,15.46-4A10.83,10.83,0,0,1,14,28.65a13.05,13.05,0,0,0,4.71-.24S10.32,27.05,10.22,19A12.82,12.82,0,0,0,15,20.07s-7.8-5.33-3.28-12.28a.24.24,0,0,1,.36,0A31.34,31.34,0,0,0,33.73,17.38Z"
            transform="translate(-5.67 -5.32)" fill="none" stroke="#303030" stroke-linecap="round"
            stroke-linejoin="round" stroke-width="0.7" />
        <path d="M43.77,32.77q-.63.66-1.35,1.29" transform="translate(-5.67 -5.32)" fill="none"
            stroke="#303030" stroke-linecap="round" stroke-linejoin="round" stroke-width="0.7" />
        <path d="M49.32,24.26a21.72,21.72,0,0,1-3.49,6.35" transform="translate(-5.67 -5.32)"
            fill="none" stroke="#303030" stroke-linecap="round" stroke-linejoin="round"
            stroke-width="0.7" />
        <path
            d="M20.8,61.46a4.12,4.12,0,0,1-1.43.73c-2.43.67-5-1-5-3.24,0-.86,0-1.71,0-2.56A1.26,1.26,0,0,1,16,55.23a1.17,1.17,0,0,1,1,1.09c0,.85,0,1.69,0,2.54a1.26,1.26,0,0,0,2.51,0c0-.82,0-1.63,0-2.45a1.3,1.3,0,0,1,1.87-1.09,1.13,1.13,0,0,1,.74,1.09c0,.79,0,1.59,0,2.38A1.23,1.23,0,0,0,23.52,60a1.21,1.21,0,0,0,1.13-1.24V56.44a1.15,1.15,0,0,1,.75-1.14,1.28,1.28,0,0,1,1.83,1c0,.9,0,1.81,0,2.71a2.41,2.41,0,0,1-.08.6,3.74,3.74,0,0,1-3.27,2.74,4,4,0,0,1-2.9-.73Z"
            transform="translate(-5.67 -5.32)" fill="#4aa0ec" />
        <path
            d="M8.44,55.38h3.85a1.24,1.24,0,0,1,1.33,1.1,1.2,1.2,0,0,1-1.21,1.22,5.76,5.76,0,0,1-.59,0H8.39a9.43,9.43,0,0,0,.17,1.34,1.2,1.2,0,0,0,1.2.76h2.77a1.32,1.32,0,0,1,1.38,1.1,1.24,1.24,0,0,1-1,1.37,1.27,1.27,0,0,1-.34,0c-1,0-2.09,0-3.14,0a3.91,3.91,0,0,1-3.16-1.78,3.1,3.1,0,0,1-.57-1.83c0-1.74,0-3.48,0-5.21a1.27,1.27,0,0,1,1.21-1.17,1.33,1.33,0,0,1,1.56,1.28v1.79Z"
            transform="translate(-5.67 -5.32)" fill="#4aa0ec" />
        <path
            d="M49.07,59.45a.58.58,0,0,0,.4.59,3.36,3.36,0,0,0,1.47.25l2.24,0a1.12,1.12,0,0,1,1.06.66,1,1,0,0,1-.3,1.11,1.26,1.26,0,0,1-.8.26c-1,0-2.11,0-3.16,0a3.81,3.81,0,0,1-3.78-3.46,3.32,3.32,0,0,1,2.69-3.52,6.15,6.15,0,0,1,3.27.12,3.26,3.26,0,0,1,2.4,2.6,2,2,0,0,1,0,.76.89.89,0,0,1-.91.62H49.07Zm2.72-1.64a.53.53,0,0,0-.31-.53,2.14,2.14,0,0,0-2,0,.57.57,0,0,0-.34.53Z"
            transform="translate(-5.67 -5.32)" fill="#4aa0ec" />
        <path
            d="M34.72,55.38h.82c.51,0,1,0,1.52,0a1.18,1.18,0,1,1,0,2.33H34.75a4.08,4.08,0,0,0,0,1.26,1.28,1.28,0,0,0,1.23.83c.45,0,.9,0,1.35,0a1.34,1.34,0,0,1,1.32,1,1.23,1.23,0,0,1-.9,1.4,4.26,4.26,0,0,1-.8.08,5.74,5.74,0,0,1-2.54-.3A3.68,3.68,0,0,1,32,59a3.57,3.57,0,0,1,0-.56c0-1.63,0-3.25,0-4.87a1.16,1.16,0,0,1,.72-1.12,1.48,1.48,0,0,1,1.44.06,1.16,1.16,0,0,1,.6,1c0,.53,0,1.07,0,1.61Z"
            transform="translate(-5.67 -5.32)" fill="#4aa0ec" />
        <path
            d="M42,57.71c0,.37,0,.7,0,1a1.25,1.25,0,0,0,1.29,1.06c.44,0,.89,0,1.33,0a1.31,1.31,0,0,1,1.34,1.12,1.23,1.23,0,0,1-1.13,1.37c-.43,0-.86,0-1.29,0a4.56,4.56,0,0,1-2.88-.9,3.58,3.58,0,0,1-1.46-2.89v-5a1.17,1.17,0,0,1,.72-1.12,1.48,1.48,0,0,1,1.43.06,1.18,1.18,0,0,1,.63,1.11c0,.52,0,1,0,1.55,0,.17.06.21.24.21q1.07,0,2.13,0a1.21,1.21,0,0,1,1.31,1.11,1.17,1.17,0,0,1-1.2,1.2c-.73,0-1.46,0-2.19,0Z"
            transform="translate(-5.67 -5.32)" fill="#4aa0ec" />
        <path
            d="M57.92,60c0,.39,0,.77,0,1.16a1.29,1.29,0,0,1-2,1,1.05,1.05,0,0,1-.62-1q0-.56,0-1.11c0-.63,0-1.27.08-1.89a3.51,3.51,0,0,1,3.07-2.77,19.77,19.77,0,0,1,2-.06,4.34,4.34,0,0,1,.51,0,1.17,1.17,0,1,1,0,2.33H59.29c-.7,0-1.19.31-1.31.84a3.94,3.94,0,0,0,0,.77C57.92,59.55,57.92,59.77,57.92,60Z"
            transform="translate(-5.67 -5.32)" fill="#4aa0ec" />
        <path
            d="M28.21,58.76V56.49a1.32,1.32,0,0,1,1.32-1.3A1.31,1.31,0,0,1,31,56.45c0,1.54,0,3.09,0,4.64a1.3,1.3,0,0,1-1.31,1.25,1.34,1.34,0,0,1-1.43-1,4.84,4.84,0,0,1,0-.85Z"
            transform="translate(-5.67 -5.32)" fill="#4aa0ec" />
        <path d="M29.59,52a1.26,1.26,0,1,1,0,2.51,1.3,1.3,0,0,1-1.35-1.26A1.28,1.28,0,0,1,29.59,52Z"
            transform="translate(-5.67 -5.32)" fill="#4aa0ec" />
    </g>
</svg>