<svg id="email_white" data-name="Livello 1" xmlns="http://www.w3.org/2000/svg"
    viewBox="0 0 68.03 51.02">
    <path
        d="M61.32,19.82h0a2.9,2.9,0,0,0-4.43-2.31L35.55,30a3.06,3.06,0,0,1-3.07,0L11.14,17.51a2.9,2.9,0,0,0-4.43,2.31h0a2.68,2.68,0,0,0,1.38,2.31l24.4,14.13a3,3,0,0,0,3,0L60,22.13A2.69,2.69,0,0,0,61.32,19.82Zm0-11.32A6.57,6.57,0,0,1,66,10.44a6.08,6.08,0,0,1,2,4.48V53.11a6.08,6.08,0,0,1-2,4.48,6.57,6.57,0,0,1-4.72,1.94H6.71A6.55,6.55,0,0,1,2,57.59a6.1,6.1,0,0,1-2-4.48V14.92a6.1,6.1,0,0,1,2-4.48A6.55,6.55,0,0,1,6.71,8.5Z"
        transform="translate(0 -8.5)" fill="#fff" />
</svg>