<svg id="facebook" data-name="Livello 1" xmlns="http://www.w3.org/2000/svg"
    viewBox="0 0 68.03 67.67">
    <path d="M28.46,67.84A34.07,34.07,0,0,1,34.13.19,34.07,34.07,0,0,1,39.8,67.84l-1.89-1.51H30.35Z"
        transform="translate(-0.11 -0.19)" fill="#1877f2" />
    <path
        d="M47.36,43.29l1.51-9.44H39.8V27.23c0-2.64.94-4.72,5.1-4.72h4.35V13.82a51,51,0,0,0-7.56-.76c-7.75,0-13.23,4.73-13.23,13.23v7.56H20V43.3h8.5v24a28.81,28.81,0,0,0,11.33,0v-24Z"
        transform="translate(-0.11 -0.19)" fill="#fff" />
</svg>