<svg id="github_black" data-name="Livello 1" xmlns="http://www.w3.org/2000/svg"
    viewBox="0 0 68.03 68.03">
    <path
        d="M34,0C15.23,0,0,15.61,0,34.88A34.82,34.82,0,0,0,23.26,68c1.7.32,2.33-.76,2.33-1.68s0-3.58-.05-6.49c-9.46,2.11-11.46-4.11-11.46-4.11-1.55-4-3.78-5.11-3.78-5.11-3.08-2.16.24-2.12.24-2.12,3.41.25,5.21,3.6,5.21,3.6,3,5.33,8,3.79,9.9,2.9a7.49,7.49,0,0,1,2.16-4.67c-7.56-.88-15.5-3.87-15.5-17.23a13.7,13.7,0,0,1,3.51-9.37,12.77,12.77,0,0,1,.33-9.23S19,13.53,25.5,18a31.61,31.61,0,0,1,17,0c6.49-4.51,9.34-3.58,9.34-3.58a12.85,12.85,0,0,1,.34,9.23,13.7,13.7,0,0,1,3.5,9.37c0,13.39-8,16.34-15.54,17.2,1.22,1.09,2.31,3.21,2.31,6.46,0,4.67,0,8.42,0,9.57,0,.93.61,2,2.34,1.68A34.82,34.82,0,0,0,68,34.88C68,15.61,52.8,0,34,0Z"
        fill="#221e1b" fill-rule="evenodd" />
    <path d="M12.88,50.08c-.07.17-.34.22-.58.1s-.38-.35-.3-.52.33-.23.58-.11.39.35.3.53Zm-.42-.32"
        fill="#221e1b" />
    <path
        d="M14.26,51.65c-.16.16-.48.08-.69-.16s-.27-.57-.1-.72.47-.09.69.16a.52.52,0,0,1,.1.72Zm-.32-.36"
        fill="#221e1b" />
    <path d="M15.6,53.66c-.21.15-.55,0-.76-.3s-.21-.68,0-.83.54,0,.76.29.21.69,0,.84Zm0,0"
        fill="#221e1b" />
    <path
        d="M17.44,55.6c-.19.21-.58.15-.87-.13a.69.69,0,0,1-.2-.89c.19-.22.59-.16.88.13s.39.68.19.89Zm0,0"
        fill="#221e1b" />
    <path d="M20,56.73c-.08.27-.46.39-.85.28s-.63-.44-.55-.72.46-.4.85-.28.63.44.55.72Zm0,0"
        fill="#221e1b" />
    <path d="M22.76,56.94c0,.28-.32.52-.72.53s-.74-.23-.74-.51.32-.53.72-.53.74.22.74.51Zm0,0"
        fill="#221e1b" />
    <path d="M25.35,56.48c0,.28-.23.57-.64.65s-.76-.1-.81-.38.24-.57.64-.65.76.1.81.38Zm0,0"
        fill="#221e1b" />
</svg>