<svg data-name="Livello 1" id="google" viewBox="0 0 68.03 68.03" xmlns="http://www.w3.org/2000/svg">
    <path
        d="M68,34.78a38.28,38.28,0,0,0-.55-6.43H34.75V41.13H53.49a15.77,15.77,0,0,1-7,10.15v8.5H57.72C64.27,53.86,68,45.13,68,34.78Z"
        fill="#4285f4" />
    <path
        d="M34.75,68c9.39,0,17.24-3.06,23-8.25l-11.18-8.5a21.3,21.3,0,0,1-11.79,3.29A20.71,20.71,0,0,1,15.26,40.51H3.74v8.76A34.77,34.77,0,0,0,34.75,68Z"
        fill="#34a853" />
    <path
        d="M15.26,40.51A19.48,19.48,0,0,1,14.16,34a20.34,20.34,0,0,1,1.1-6.5V18.77H3.74a33,33,0,0,0,0,30.5Z"
        fill="#fbbc05" />
    <path
        d="M34.75,13.46a19.07,19.07,0,0,1,13.33,5.11L58,8.87A33.6,33.6,0,0,0,34.75,0a34.76,34.76,0,0,0-31,18.77l11.52,8.75A20.72,20.72,0,0,1,34.75,13.46Z"
        fill="#ea4335" />
</svg>